<svg width="49" height="2" viewBox="0 0 49 2" fill="none" xmlns="http://www.w3.org/2000/svg">
<path d="M0.466728 0.0101699C0.74131 -0.015883 1.10124 0.0119737 1.37479 0.0502087C1.46052 0.0620673 1.41711 0.115075 1.47629 0.125648C1.59203 0.146258 1.69986 0.120261 1.81424 0.144813C1.85214 0.153209 1.80496 0.237174 1.84471 0.244056C2.06251 0.281163 2.26857 0.259777 2.48921 0.277625C3.57602 0.365685 4.64432 0.397205 5.74443 0.435461C6.10716 0.448004 6.54811 0.524206 6.92278 0.490881C6.96651 0.486916 6.94044 0.413216 6.94876 0.407141C7.07928 0.31415 7.03588 0.462935 7.1211 0.482702C7.45933 0.560754 7.83544 0.567542 8.16094 0.539099C8.29942 0.526782 8.16057 0.380395 8.30001 0.462561C8.30969 0.468112 8.27455 0.546377 8.31253 0.554724C8.39866 0.573498 8.56205 0.559509 8.6288 0.56571C8.75744 0.578057 8.77872 0.577269 8.9004 0.578161C9.06673 0.580061 9.26456 0.618966 9.44303 0.601232C9.48112 0.597215 9.43069 0.516985 9.49144 0.503332C9.55224 0.489702 9.7131 0.496505 9.76733 0.515417C9.82158 0.534339 9.79848 0.597399 9.80808 0.611853C9.88705 0.733849 10.0731 0.564884 10.0971 0.560705C10.5336 0.489506 10.9079 0.58576 11.3177 0.585485C11.6287 0.585073 11.9613 0.553296 12.2573 0.557653C12.6099 0.563155 12.9088 0.606631 13.2513 0.599157C13.2875 0.598461 13.2451 0.50413 13.2893 0.503088C13.7584 0.492111 14.2243 0.502394 14.6914 0.566076C14.7382 0.572546 14.6779 0.655368 14.7247 0.666784C15.0112 0.734849 15.4646 0.898357 15.6348 0.537756C15.8289 0.551837 16.0645 0.566385 16.2381 0.639074C16.3501 0.685858 16.2414 0.776084 16.3789 0.737584C16.4099 0.729007 16.3696 0.649991 16.4161 0.643102C16.6119 0.614176 16.8259 0.639861 17.0197 0.599035C17.0591 0.590545 17.0483 0.519744 17.0595 0.506994C17.1533 0.403741 17.3095 0.574425 17.3436 0.586828C17.6029 0.679315 17.7923 0.642919 18.0339 0.645178C18.09 0.645741 18.0237 0.550639 18.0776 0.547766C18.3574 0.534136 18.6473 0.54231 18.9212 0.584509C18.9821 0.594124 18.9261 0.675134 18.9552 0.683874C19.0836 0.721424 19.1121 0.568417 19.2352 0.601477C19.2612 0.60825 19.2466 0.6776 19.2513 0.685217C19.3254 0.804778 19.3898 0.635368 19.4089 0.631628C19.65 0.580523 19.8042 0.757378 20.0371 0.732335C20.065 0.729161 20.0021 0.641412 20.0805 0.637853C20.6024 0.61363 21.1544 0.637735 21.671 0.707922C21.7513 0.718716 21.694 0.784634 21.699 0.79276C21.7814 0.919728 21.8347 0.749606 21.8609 0.7432C22.0675 0.697082 22.2605 0.839748 22.4009 0.637121C23.276 0.707439 24.147 0.593653 25.0148 0.775182C25.0258 0.777285 25.0061 0.86107 25.0281 0.864903C25.2932 0.911948 25.2422 0.781731 25.4176 0.622473C25.4618 0.582482 25.5962 0.77476 25.6081 0.788854C25.6514 0.840791 25.6065 0.96544 25.621 0.975499C25.7411 1.05448 25.7215 0.642259 25.8834 0.642126C25.8885 0.642813 25.8672 0.718688 25.8808 0.726232C25.923 0.749917 25.9649 0.719767 26.0062 0.745885C26.1008 0.806321 26.1345 1.00663 26.279 0.89005C26.2972 0.87492 26.2693 0.64109 26.4139 0.652136C26.4716 0.656737 26.7267 0.65273 26.7982 0.667883C26.8697 0.683018 26.8206 0.758369 26.8257 0.761632C27.0182 0.861272 26.9452 0.902568 27.0416 1.05008C27.138 1.19704 27.1113 0.846531 27.1506 0.807408C27.1899 0.768397 27.331 0.850607 27.3657 0.879186C27.4004 0.907777 27.3571 0.955658 27.388 0.971837C27.5923 1.07755 27.4776 0.797855 27.545 0.742223C27.7037 0.610497 27.8273 0.870438 27.9726 0.895909C28.012 0.902788 27.9799 0.843585 28.0149 0.838048C28.1536 0.816904 28.237 0.898013 28.3947 0.823644C28.4205 0.811525 28.5481 0.655241 28.6306 0.769933C28.6423 0.786471 28.6091 0.851248 28.6682 0.865758C28.7565 0.887534 28.9155 0.901692 29.0104 0.88004C29.0805 0.86402 29.0002 0.757283 29.0884 0.790441C29.1276 0.805246 29.0549 0.867688 29.1286 0.890294C29.2018 0.912893 29.3891 0.91015 29.4603 0.907994C29.5315 0.905791 29.4925 0.824826 29.4983 0.819371C29.5331 0.788126 29.6696 0.749085 29.6817 0.749181C30.2902 0.739297 30.8513 0.875772 31.4438 0.830602C31.4903 0.827174 31.4593 0.741795 31.4664 0.740392C31.6255 0.70462 31.5001 0.931622 31.6112 1.0076C31.5952 0.834345 31.6608 0.865716 31.7729 0.846715C31.827 0.837418 31.7975 0.770331 31.8025 0.763463C31.8826 0.661566 31.9384 0.79318 31.9527 0.820104C32.0058 0.919144 32.0636 0.802121 32.0997 0.868321C32.1358 0.934027 32.0527 1.03143 32.1602 1.03019C32.1904 0.968165 32.1106 0.806089 32.1922 0.779821C32.5002 0.680461 33.0752 0.807627 33.3229 0.820836C33.57 0.834035 33.6499 0.822592 33.7939 0.845006C34.0541 0.885533 33.9587 0.765283 34.1203 0.710241C34.2823 0.655205 34.2035 0.951079 34.2268 1.01468C34.2497 1.07826 34.2747 1.01281 34.3031 1.04776C34.3314 1.08271 34.2701 1.12595 34.3367 1.13907C34.4034 1.15218 34.5858 1.03907 34.6094 0.972569C34.6594 0.831672 34.5773 0.683794 34.7537 0.735753C34.7639 0.738837 34.731 0.816636 34.7698 0.824498C35.0785 0.884391 35.3993 0.888103 35.7076 0.941075C35.75 0.948481 35.7121 1.03503 35.7368 1.04032C35.9938 1.09568 35.9019 0.949745 36.0428 0.787633C36.0111 1.00337 36.089 1.13536 36.2841 1.13663C36.4013 1.13747 36.3811 1.04325 36.457 0.976842C36.4797 0.956823 36.5627 1.02152 36.5777 0.977208C36.6273 0.83236 36.5492 0.670211 36.7502 0.734777C36.7591 0.737845 36.731 0.817133 36.7615 0.821935C36.9585 0.853365 36.9821 0.701856 37.1951 0.683508C37.3621 0.669111 37.659 0.761499 37.8492 0.776525C37.8452 1.01907 38.0247 0.963534 38.0976 0.7963C38.221 0.803147 38.3542 0.793693 38.4735 0.816808C38.5145 0.824689 38.4875 0.894913 38.4927 0.902501C38.5721 1.02153 38.6257 0.858831 38.6524 0.852452C38.941 0.790448 39.1762 0.913761 39.4516 0.793248C39.4614 0.788908 39.4772 0.620425 39.5509 0.743444C39.5556 0.751924 39.4647 0.82858 39.5942 0.834508C39.7238 0.840449 39.9682 0.930768 40.1481 0.852696C40.1916 0.833901 40.3018 0.697128 40.3902 0.803991C40.4019 0.818502 40.389 0.866823 40.406 0.893712C40.461 0.979391 40.491 0.809097 40.5556 0.95377C40.6202 1.09844 40.7545 1.20678 40.936 1.10697C40.9417 1.10407 40.9847 0.969092 41.0418 0.971226C41.1329 0.974749 41.2622 1.00287 41.3573 1.00199C41.4028 1.00152 41.3737 0.917706 41.3816 0.916173C41.6878 0.869207 41.9057 0.943925 42.2337 0.976353C42.2939 0.982464 42.4667 0.868173 42.5831 0.958531C42.7109 1.05745 42.5796 1.46891 42.8734 1.37088C42.9919 1.33167 43.1419 0.809653 43.3549 1.08011C43.7679 1.01309 44.1499 1.15151 44.5641 1.05582C44.5827 1.05158 44.6416 0.905889 44.6854 0.907872C44.7504 0.911098 44.7861 0.979192 44.8325 0.983678C45.027 1.00419 45.205 0.945929 45.3925 0.954991C45.4637 0.958284 45.4388 1.02869 45.5237 1.03263C45.6086 1.0365 45.6652 0.943782 45.7802 0.98856C45.867 1.02269 45.9539 1.2122 46.0692 1.23429C46.0736 1.04736 46.1527 1.05121 46.2935 1.00187C46.3205 0.992292 46.2915 0.927231 46.3043 0.919347C46.3564 0.885814 46.4046 0.939735 46.454 0.903233C46.4661 0.894467 46.4666 0.83063 46.4765 0.81986C46.5601 0.725848 46.6979 0.869442 46.7215 0.894444C46.8122 0.989396 46.8546 0.906369 46.9241 0.943761C46.9936 0.981147 46.8898 1.02788 46.9709 1.05057C47.139 1.0975 47.3551 1.08719 47.5258 1.09012C47.594 1.0909 47.5475 1.00569 47.5572 1.00382C47.6982 0.982207 47.8406 1.07285 47.9188 0.903111C48.0164 1.34199 48.0037 0.860543 48.2051 0.948399C48.221 0.955505 48.2411 1.16305 48.1803 1.19352C48.1193 1.22396 48.027 1.15908 47.9425 1.20658C47.9225 1.21772 47.8078 1.4122 47.7922 1.42398C47.6697 1.51605 47.6523 1.20591 47.6458 1.18888C47.5723 1.00505 47.4323 1.21456 47.3954 1.22904C47.2266 1.29537 47.0832 1.25176 46.9421 1.29911C46.8498 1.32971 46.8407 1.53286 46.7683 1.52664C46.5273 1.50609 46.4432 1.22269 46.2161 1.46842C46.1674 1.52083 46.2158 1.74287 46.0413 1.56827C46.0304 1.55726 45.9008 1.39754 45.826 1.49857C45.8166 1.51131 45.8169 1.57602 45.8045 1.58145C45.7214 1.61662 45.666 1.56506 45.5755 1.58975C45.485 1.61445 45.3762 1.65125 45.2729 1.62931C45.2106 1.61618 45.1307 1.49562 45.1009 1.4661C45.0168 1.38107 44.9265 1.52048 44.8744 1.41751C44.8218 1.31403 44.9246 1.15687 44.7867 1.09C44.7816 1.25812 44.7699 1.43069 44.7617 1.59976C44.4595 1.59384 44.1622 1.53948 43.859 1.54691C43.8214 1.548 43.8599 1.63838 43.8196 1.64188C43.6496 1.65624 43.5011 1.59181 43.3248 1.61746C43.1883 1.63767 43.0387 1.73337 42.896 1.75748C42.8088 1.5651 42.5971 1.63041 42.4433 1.61283C42.3894 1.60675 42.393 1.55537 42.3547 1.53861C42.2101 1.47661 42.2779 1.64662 42.2382 1.67337C42.0682 1.78756 42.0536 1.40276 41.8532 1.41227C41.8426 1.41264 41.7127 1.61775 41.6949 1.63053C41.5812 1.71382 41.6761 1.55913 41.6049 1.54398C41.4751 1.51628 41.3849 1.4673 41.2326 1.52738C41.1882 1.54517 41.0817 1.67302 40.9954 1.57413C40.9841 1.56118 40.9903 1.49338 40.9812 1.48941C40.8159 1.42323 40.8115 1.63626 40.7171 1.70841C40.6226 1.78054 40.4767 1.63348 40.447 1.5911C40.3693 1.48145 40.5065 1.54424 40.5107 1.53348C40.5601 1.40543 40.4537 1.42748 40.3724 1.41666C40.3606 1.20778 40.2469 1.22032 40.2881 1.40628C40.2928 1.4266 40.3561 1.40712 40.3724 1.41666C40.301 1.6216 40.176 1.64784 40.038 1.45633C39.9734 1.36657 40.0345 1.26192 39.8382 1.3002C39.7491 1.31749 39.7835 1.46131 39.7049 1.50052C39.5253 1.58999 39.2919 1.45582 39.1068 1.47696C39.0396 1.48464 39.105 1.56336 39.0591 1.57132C38.9372 1.59269 38.8297 1.53362 38.7073 1.56388C38.6962 1.56672 38.7233 1.64913 38.6852 1.65018C38.3967 1.65975 38.1454 1.60696 37.8441 1.6055C37.6985 1.60483 37.4383 1.65028 37.2875 1.64115C37.0261 1.62579 36.7046 1.50595 36.4813 1.53507C36.3356 1.5537 36.3676 1.63613 36.3052 1.69229C36.1848 1.80116 35.9716 1.60616 35.9429 1.57596C35.9421 1.57496 36.0674 1.55553 36.0005 1.51322C35.9616 1.42505 35.9444 1.57558 35.9429 1.57596C35.9241 1.55645 35.6738 1.53774 35.6241 1.5535C35.597 1.56211 35.6122 1.64021 35.5981 1.64322C35.2633 1.71311 34.928 1.73296 34.5885 1.69644C34.5825 1.69487 34.5915 1.60751 34.5775 1.60489C34.3809 1.56605 34.2551 1.67291 34.093 1.73636C33.9309 1.79978 33.8024 1.77854 33.7064 1.62857C33.5841 1.64745 33.4087 1.58116 33.3077 1.54093C33.2068 1.5007 33.1927 1.67074 33.1838 1.6741C32.9067 1.7817 32.7466 1.68437 32.4591 1.66922C32.3225 1.66173 32.0514 1.68639 31.9034 1.70499C31.7865 1.71997 31.716 1.68012 31.6083 1.7056C31.5937 1.709 31.6084 1.78471 31.604 1.78763C31.4837 1.87822 31.5415 1.69312 31.5167 1.66007C31.4266 1.53985 31.371 1.47583 31.217 1.53238C31.1815 1.54533 31.078 1.81184 31.0133 1.82742C30.9291 1.8472 30.9609 1.75167 30.8727 1.77481C30.8652 1.77671 30.8667 1.83564 30.8123 1.83304C30.5598 1.82175 30.2845 1.78746 30.022 1.79337C29.9862 1.79395 30.0322 1.88742 29.9804 1.8898C29.7373 1.90088 29.4709 1.89742 29.2342 1.85367C29.1759 1.84261 29.2124 1.77716 29.1998 1.75772C29.1221 1.64014 29.012 1.81099 28.9938 1.81424C28.5603 1.89634 28.2285 1.74173 27.7867 1.81534C27.7626 1.81966 27.5775 2.00281 27.4949 1.84574C27.4892 1.83528 27.4075 1.67458 27.3352 1.78446C27.3308 1.79133 27.3817 1.87407 27.2928 1.86563C27.204 1.85722 27.0609 1.91247 26.9388 1.82157C26.9001 1.79293 26.8087 1.63262 26.6934 1.76041C26.6858 1.76933 26.5078 2.05828 26.4442 1.85892C26.4339 1.8261 26.4447 1.61513 26.307 1.7233C26.2807 1.74427 26.3284 1.79133 26.2591 1.82071C26.153 1.866 26.0123 1.80949 25.8818 1.90347C25.859 1.92011 25.7621 2.06331 25.6844 1.95462C25.6722 1.9376 25.6953 1.86717 25.6543 1.85929C25.4591 1.82148 25.2547 1.86859 25.0565 1.81986C24.9863 1.80273 25.0222 1.68887 24.949 1.65836C24.8758 1.62786 24.7284 1.59851 24.6518 1.65055C24.5752 1.7026 24.6589 1.88407 24.5442 1.89859C24.0453 1.96166 23.5512 1.8552 23.0531 1.83963C22.9792 1.83731 23.0405 1.90224 22.9316 1.90347C22.5302 1.90831 21.8372 1.96919 21.4889 1.83121C21.2099 1.72069 21.5611 1.63656 21.3478 1.59159C21.2449 1.57013 21.1336 1.78111 21.1087 1.78775C20.8661 1.85522 20.6974 1.76176 20.479 1.79044C20.4339 1.79639 20.4781 1.8819 20.4397 1.88602C20.3086 1.90085 20.1708 1.86268 20.0455 1.86966C19.9893 1.87299 19.9997 1.9383 19.948 1.93326C19.8242 1.92195 19.7148 1.8945 19.5941 1.83328C19.5831 1.82771 19.6573 1.74646 19.5657 1.74344C19.4175 1.73878 19.2336 1.67839 19.0631 1.74076C19.0125 1.75951 19.0105 1.90878 18.9018 1.8057C18.879 1.78417 18.9081 1.60493 18.7814 1.7598C18.7601 1.78553 18.5473 1.99442 18.4429 1.85977C18.4153 1.82434 18.345 1.67767 18.2842 1.70072C18.2759 1.70439 18.309 1.78457 18.2586 1.79239C18.0809 1.81856 17.8947 1.81 17.7122 1.83512C17.6635 1.84198 17.7361 1.92495 17.6634 1.93253C17.4637 1.9535 17.2143 1.93237 17.0189 1.9064C16.9469 1.89667 16.9967 1.82795 16.9914 1.82047C16.9072 1.69882 16.8573 1.86302 16.8294 1.87259C16.6554 1.92992 16.523 1.85279 16.3626 1.8732C16.3184 1.87863 16.3498 1.95692 16.341 1.9639C16.2496 2.03211 16.3177 1.89151 16.2598 1.87601C16.0978 1.83212 15.9173 1.83842 15.7535 1.84842C15.6933 1.85221 15.7609 1.94299 15.7069 1.94534C15.3873 1.96099 15.0551 1.9523 14.7432 1.90225C14.6844 1.89267 14.7214 1.82276 14.7091 1.80679C14.6248 1.69509 14.5011 1.84746 14.4727 1.86197C14.3433 1.92824 14.2931 1.86642 14.1788 1.87796C13.6208 1.93541 12.9317 1.89447 12.405 1.86917C11.7185 1.83662 11.1859 1.77012 10.5313 1.78739C10.4897 1.7884 10.5316 1.88139 10.4958 1.88345C10.0327 1.90587 9.57688 1.86953 9.11292 1.89639C9.07485 1.89843 9.12973 1.98659 9.06862 1.99283C8.94328 2.00624 8.7845 2.00145 8.65777 1.9733C8.59596 1.95974 8.67887 1.88409 8.61665 1.87198C8.47177 1.84362 8.31648 1.83734 8.16767 1.85147C8.10434 1.85768 8.19989 1.94784 8.11757 1.94888C7.55687 1.95783 7.0062 1.97336 6.43959 1.8566C6.40074 1.84858 6.36666 1.66533 6.28407 1.70047C6.27785 1.75133 6.27819 1.81115 6.27547 1.86551C5.45923 1.89479 4.65132 1.83127 3.83279 1.82144C3.79828 1.82105 3.85792 1.91815 3.79111 1.91788C3.4044 1.91644 3.02888 1.94334 2.63332 1.84683C2.59408 1.8374 2.61421 1.66658 2.49855 1.69242C2.47816 1.69713 2.30396 1.71991 2.25892 1.75699C2.25281 1.76258 2.28459 1.84231 2.22845 1.84464C1.90225 1.85674 1.56042 1.83854 1.23478 1.78983C1.18223 1.78181 1.2382 1.69691 1.20076 1.69046C0.935241 1.64539 0.646427 1.70993 0.392707 1.63285C0.222876 1.58094 0.285752 1.43417 0.195506 1.28971C0.182742 1.26932 0.0775768 1.26609 0.0721384 1.18204C0.0581764 0.970681 0.109115 0.739242 0.0882135 0.513952C0.0837977 0.465427 -0.0570451 0.517692 0.0263428 0.400427C0.0321684 0.392579 0.13428 0.35366 0.15943 0.31388C0.176941 0.286376 0.145386 0.200894 0.181113 0.165687C0.216837 0.130513 0.256093 0.202169 0.315322 0.160804C0.374525 0.118927 0.348493 0.0216813 0.466728 0.0101699ZM32.8531 1.36112C32.7597 1.27946 32.7459 1.57855 32.847 1.50699C32.8519 1.50318 32.858 1.36512 32.8531 1.36112ZM44.1639 1.31388C44.0417 1.18195 43.958 1.37593 44.0443 1.47782C44.1305 1.57959 44.2011 1.35387 44.1639 1.31388ZM45.4312 1.21756C45.2884 1.11355 45.2659 1.53768 45.4189 1.45194C45.4278 1.44709 45.4396 1.2236 45.4312 1.21756ZM0.614021 1.24857C0.61273 1.2446 0.537134 1.24073 0.535327 1.24466C0.495074 1.33965 0.646236 1.34733 0.614021 1.24857ZM46.6888 1.11271C46.6442 1.05533 46.5158 1.12156 46.5712 1.19291C46.6158 1.2503 46.7444 1.18407 46.6888 1.11271ZM27.9766 1.0419C27.9751 1.03745 27.9209 1.03343 27.922 1.05863C27.9257 1.13977 28.0011 1.11687 27.9766 1.0419ZM48.8263 1.10782C48.5104 1.09186 48.319 0.741508 48.6629 0.781041C48.7252 0.788194 48.5287 0.892765 48.6079 0.924351C48.753 0.981896 48.8493 0.761919 48.9973 0.879796C49.0241 0.901371 48.8443 1.10951 48.8257 1.10831C48.8259 1.10815 48.8261 1.10799 48.8263 1.10782ZM32.7993 1.00187C32.7974 0.997911 32.7224 0.994161 32.7206 0.998082C32.68 1.09304 32.8311 1.10065 32.7993 1.00187ZM24.8141 0.856969C24.8099 0.848541 24.6358 0.840659 24.6301 0.848424C24.5393 1.0037 24.8913 1.0201 24.8141 0.856969ZM37.8521 0.782995C37.934 0.68747 38.0319 0.676223 38.0972 0.796178C38.0158 0.78981 37.9339 0.788872 37.8521 0.782995Z" fill="black"/>
</svg>
