<svg width="67" height="8" viewBox="0 0 67 8" fill="none" xmlns="http://www.w3.org/2000/svg">
<path d="M0.638179 0.0406795C1.01363 -0.0635319 1.50578 0.047895 1.87981 0.200835C1.99703 0.248269 1.93768 0.460302 2.01859 0.502592C2.17686 0.585033 2.3243 0.481044 2.48069 0.579252C2.53252 0.612836 2.46801 0.948697 2.52235 0.976223C2.82017 1.12465 3.10192 1.03911 3.40361 1.1105C4.88966 1.46274 6.3504 1.58882 7.85463 1.74185C8.35061 1.79202 8.95354 2.09682 9.46584 1.96352C9.52564 1.94766 9.48999 1.65286 9.50136 1.62856C9.67983 1.2566 9.62049 1.85174 9.73701 1.93081C10.1995 2.24302 10.7138 2.27017 11.1588 2.1564C11.3482 2.10713 11.1583 1.52158 11.349 1.85024C11.3622 1.87245 11.3142 2.18551 11.3661 2.21889C11.4839 2.29399 11.7073 2.23804 11.7986 2.26284C11.9745 2.31223 12.0036 2.30908 12.1699 2.31264C12.3974 2.32025 12.6679 2.47586 12.9119 2.40493C12.964 2.38886 12.895 2.06794 12.9781 2.01333C13.0612 1.95881 13.2812 1.98602 13.3553 2.06167C13.4295 2.13736 13.3979 2.38959 13.4111 2.44741C13.519 2.9354 13.7735 2.25954 13.8062 2.24282C14.4031 1.95803 14.9149 2.34304 15.4752 2.34194C15.9005 2.34029 16.3553 2.21318 16.76 2.23061C17.2421 2.25262 17.6508 2.42652 18.1192 2.39663C18.1686 2.39384 18.1107 2.01652 18.1711 2.01235C18.8125 1.96844 19.4495 2.00958 20.0882 2.26431C20.1523 2.29018 20.0697 2.62147 20.1337 2.66714C20.5255 2.9394 21.1454 3.59343 21.3782 2.15102C21.6436 2.20735 21.9658 2.26554 22.2032 2.5563C22.3563 2.74343 22.2076 3.10434 22.3956 2.95034C22.4381 2.91603 22.3829 2.59996 22.4465 2.57241C22.7143 2.4567 23.0069 2.55944 23.2718 2.39614C23.3257 2.36218 23.311 2.07898 23.3262 2.02798C23.4545 1.61497 23.6681 2.2977 23.7147 2.34731C24.0693 2.71726 24.3283 2.57168 24.6586 2.58071C24.7352 2.58297 24.6446 2.20256 24.7184 2.19106C25.101 2.13654 25.4973 2.16924 25.8719 2.33804C25.9552 2.3765 25.8786 2.70054 25.9184 2.7355C26.0939 2.8857 26.1329 2.27367 26.3012 2.40591C26.3367 2.433 26.3167 2.7104 26.3232 2.74087C26.4245 3.21911 26.5126 2.54147 26.5387 2.52651C26.8684 2.32209 27.0792 3.02951 27.3977 2.92934C27.4358 2.91664 27.3499 2.56565 27.457 2.55141C28.1706 2.45452 28.9254 2.55094 29.6318 2.83169C29.7416 2.87486 29.6632 3.13854 29.6701 3.17104C29.7827 3.67891 29.8556 2.99843 29.8914 2.9728C30.174 2.78833 30.4379 3.35899 30.6298 2.54848C31.8263 2.82976 33.0173 2.37461 34.2039 3.10073C34.219 3.10914 34.192 3.44428 34.2221 3.45961C34.5845 3.64779 34.5149 3.12692 34.7547 2.48989C34.8151 2.32993 34.9989 3.09904 35.0152 3.15542C35.0744 3.36317 35.013 3.86176 35.0328 3.902C35.197 4.21793 35.1702 2.56904 35.3916 2.5685C35.3986 2.57125 35.3695 2.87475 35.3881 2.90493C35.4458 2.99967 35.5031 2.87907 35.5596 2.98354C35.6889 3.22529 35.7349 4.0265 35.9325 3.5602C35.9575 3.49968 35.9193 2.56436 36.117 2.60854C36.1958 2.62695 36.5447 2.61092 36.6425 2.67153C36.7401 2.73207 36.6731 3.03348 36.68 3.04653C36.9432 3.44509 36.8434 3.61027 36.9752 4.20033C37.1071 4.78817 37.0705 3.38612 37.1243 3.22963C37.1781 3.07359 37.371 3.40243 37.4184 3.51674C37.4658 3.63111 37.4067 3.82263 37.4488 3.88735C37.7282 4.31018 37.5715 3.19142 37.6635 2.96889C37.8806 2.44199 38.0496 3.48175 38.2483 3.58364C38.3021 3.61115 38.2582 3.37434 38.3061 3.35219C38.4957 3.26762 38.6097 3.59205 38.8254 3.29458C38.8607 3.2461 39.0351 2.62097 39.148 3.07973C39.164 3.14589 39.1185 3.40499 39.1993 3.46303C39.3201 3.55014 39.5376 3.60677 39.6673 3.52016C39.7631 3.45608 39.6533 3.02913 39.7739 3.16176C39.8275 3.22098 39.7282 3.47075 39.8289 3.56118C39.929 3.65157 40.1851 3.6406 40.2825 3.63198C40.3798 3.62316 40.3265 3.2993 40.3344 3.27749C40.382 3.1525 40.5686 2.99634 40.5851 2.99672C41.4172 2.95719 42.1844 3.50309 42.9945 3.32241C43.0581 3.3087 43.0158 2.96718 43.0255 2.96157C43.2431 2.81848 43.0715 3.72649 43.2235 4.03041C43.2016 3.33738 43.2913 3.46287 43.4446 3.38686C43.5185 3.34967 43.4783 3.08132 43.485 3.05385C43.5946 2.64627 43.6708 3.17272 43.6905 3.28042C43.763 3.67658 43.842 3.20848 43.8914 3.47329C43.9407 3.73611 43.8272 4.12574 43.9742 4.12074C44.0154 3.87266 43.9063 3.22435 44.0179 3.11928C44.4391 2.72184 45.2253 3.23051 45.5639 3.28334C45.9019 3.33614 46.0111 3.29037 46.208 3.38002C46.5638 3.54213 46.4334 3.06113 46.6543 2.84096C46.8758 2.62082 46.7681 3.80431 46.7999 4.05873C46.8312 4.31304 46.8653 4.05126 46.9042 4.19106C46.943 4.33082 46.8591 4.50381 46.9502 4.55629C47.0414 4.60872 47.2908 4.1563 47.3231 3.89028C47.3915 3.32669 47.2791 2.73518 47.5204 2.94301C47.5343 2.95535 47.4893 3.26654 47.5424 3.29799C47.9645 3.53756 48.4031 3.55241 48.8247 3.7643C48.8827 3.79392 48.8308 4.14012 48.8646 4.16127C49.216 4.3827 49.0904 3.79898 49.283 3.15053C49.2397 4.01347 49.3462 4.54143 49.6129 4.54652C49.7732 4.54989 49.7456 4.173 49.8493 3.90737C49.8804 3.82729 49.9939 4.08608 50.0144 3.90883C50.0822 3.32944 49.9754 2.68084 50.2503 2.93911C50.2624 2.95138 50.224 3.26853 50.2657 3.28774C50.5351 3.41346 50.5674 2.80742 50.8586 2.73403C51.0869 2.67644 51.493 3.046 51.7529 3.1061C51.7475 4.0763 51.993 3.85413 52.0926 3.1852C52.2613 3.21259 52.4435 3.17477 52.6066 3.26723C52.6627 3.29875 52.6258 3.57965 52.6329 3.61C52.7414 4.08612 52.8148 3.43532 52.8512 3.40981C53.2458 3.16179 53.5674 3.65505 53.9441 3.17299C53.9574 3.15563 53.9791 2.4817 54.0798 2.97378C54.0863 3.00769 53.9619 3.31432 54.1391 3.33803C54.3163 3.3618 54.6504 3.72307 54.8964 3.41079C54.9559 3.3356 55.1065 2.78851 55.2274 3.21596C55.2435 3.27401 55.2258 3.46729 55.2491 3.57485C55.3242 3.91756 55.3652 3.23639 55.4535 3.81508C55.5419 4.39375 55.7256 4.82713 55.9737 4.42787C55.9816 4.41626 56.0403 3.87637 56.1183 3.88491C56.2429 3.899 56.4197 4.01147 56.5498 4.00795C56.612 4.00607 56.5722 3.67082 56.583 3.66469C57.0017 3.47683 57.2997 3.7757 57.7482 3.90541C57.8304 3.92985 58.0667 3.47269 58.2259 3.83412C58.4007 4.22978 58.2211 5.87565 58.6228 5.48353C58.7848 5.32669 58.99 3.23861 59.2812 4.32045C59.846 4.05238 60.3682 4.60606 60.9346 4.22328C60.96 4.20632 61.0406 3.62356 61.1004 3.63149C61.1893 3.64439 61.2381 3.91677 61.3016 3.93471C61.5675 4.01675 61.8109 3.78372 62.0673 3.81996C62.1647 3.83313 62.1306 4.11477 62.2467 4.13051C62.3628 4.14599 62.4402 3.77513 62.5974 3.95424C62.7162 4.09077 62.8349 4.84879 62.9925 4.93715C62.9986 4.18944 63.1068 4.20484 63.2992 4.00746C63.3362 3.96917 63.2966 3.70893 63.3141 3.67739C63.3853 3.54326 63.4512 3.75894 63.5188 3.61293C63.5352 3.57787 63.536 3.32252 63.5495 3.27944C63.6638 2.90339 63.8522 3.47777 63.8845 3.57778C64.0085 3.95758 64.0665 3.62548 64.1616 3.77504C64.2565 3.92459 64.1146 4.11154 64.2255 4.20229C64.4554 4.38999 64.7508 4.34876 64.9843 4.36049C65.0775 4.3636 65.0139 4.02275 65.0273 4.01528C65.2199 3.92883 65.4147 4.29139 65.5216 3.61245C65.6551 5.36795 65.6377 3.44217 65.9131 3.7936C65.9348 3.82202 65.9624 4.65219 65.8791 4.77406C65.7958 4.89582 65.6696 4.63633 65.554 4.82631C65.5267 4.87089 65.3699 5.64881 65.3485 5.69593C65.181 6.06421 65.1573 4.82365 65.1484 4.75551C65.0479 4.02018 64.8564 4.85824 64.8059 4.91615C64.5752 5.18149 64.3791 5.00703 64.1861 5.19642C64.0599 5.31883 64.0475 6.13145 63.9484 6.10658C63.6189 6.02436 63.5039 4.89076 63.1934 5.87367C63.1269 6.0833 63.193 6.97147 62.9545 6.27308C62.9395 6.22905 62.7624 5.59015 62.66 5.99427C62.6472 6.04523 62.6476 6.30407 62.6306 6.32582C62.517 6.46647 62.4413 6.26026 62.3175 6.35902C62.1938 6.45778 62.045 6.60501 61.9038 6.51722C61.8186 6.46472 61.7094 5.98246 61.6686 5.86439C61.5535 5.52426 61.4301 6.08193 61.3588 5.67006C61.2869 5.25611 61.4275 4.62746 61.239 4.36C61.232 5.0325 61.216 5.72275 61.2047 6.39906C60.7916 6.37538 60.385 6.15792 59.9705 6.18763C59.9191 6.19199 59.9717 6.55352 59.9166 6.56751C59.6841 6.62495 59.4811 6.36722 59.24 6.46986C59.0534 6.55069 58.8488 6.93348 58.6537 7.02991C58.5345 6.26039 58.245 6.52163 58.0347 6.4513C57.961 6.427 57.9659 6.22148 57.9136 6.15443C57.7159 5.90645 57.8085 6.58647 57.7543 6.69349C57.5218 7.15022 57.5019 5.61103 57.2278 5.64906C57.2133 5.65055 57.0358 6.47101 57.0113 6.5221C56.856 6.85527 56.9856 6.23653 56.8884 6.17591C56.7109 6.06513 56.5875 5.86919 56.3793 6.10951C56.3185 6.18069 56.1729 6.69207 56.0549 6.29652C56.0394 6.24472 56.048 5.97353 56.0355 5.95765C55.8095 5.69292 55.8035 6.54504 55.6744 6.83363C55.5452 7.12215 55.3457 6.53393 55.305 6.36439C55.1988 5.92581 55.3865 6.17696 55.3922 6.13392C55.4598 5.62174 55.3143 5.70992 55.2031 5.66664C55.187 4.83113 55.0315 4.88128 55.0878 5.62513C55.0942 5.70638 55.1807 5.62847 55.2031 5.66664C55.1055 6.48639 54.9346 6.59137 54.7458 5.82533C54.6575 5.4663 54.741 5.04768 54.4726 5.20082C54.3508 5.26995 54.3979 5.84524 54.2904 6.00209C54.0448 6.35994 53.7257 5.82329 53.4725 5.90785C53.3806 5.93855 53.4701 6.25346 53.4073 6.28529C53.2407 6.37075 53.0937 6.13446 52.9263 6.2555C52.9111 6.26687 52.9482 6.59652 52.8962 6.60072C52.5016 6.639 52.158 6.42786 51.746 6.42201C51.547 6.41933 51.1911 6.60114 50.9849 6.56458C50.6275 6.50318 50.1879 6.02382 49.8826 6.14027C49.6834 6.21481 49.7271 6.54453 49.6418 6.76917C49.4771 7.20463 49.1857 6.42462 49.1465 6.30384C49.1453 6.29985 49.3166 6.22212 49.2252 6.05287C49.172 5.7002 49.1484 6.30231 49.1465 6.30384C49.1207 6.22582 48.7784 6.15097 48.7104 6.214C48.6735 6.24844 48.6942 6.56083 48.6749 6.57289C48.2172 6.85244 47.7587 6.93184 47.2945 6.78578C47.2863 6.77946 47.2986 6.43004 47.2794 6.41957C47.0107 6.2642 46.8386 6.69166 46.6169 6.94544C46.3953 7.19912 46.2196 7.11415 46.0884 6.51429C45.9212 6.58982 45.6813 6.32462 45.5432 6.16371C45.4052 6.00279 45.3859 6.68297 45.3738 6.69642C44.9949 7.1268 44.7759 6.73748 44.3829 6.67689C44.196 6.64692 43.8253 6.74558 43.623 6.81995C43.4631 6.87987 43.3668 6.72047 43.2194 6.8224C43.1995 6.83601 43.2196 7.13886 43.2136 7.15052C43.0491 7.51286 43.1282 6.7725 43.0942 6.64027C42.9711 6.15942 42.8951 5.90332 42.6845 6.12953C42.6359 6.18133 42.4945 7.24736 42.4059 7.3097C42.2908 7.3888 42.3343 7.00669 42.2137 7.09925C42.2034 7.10682 42.2055 7.34255 42.1312 7.33216C41.7859 7.28701 41.4094 7.14984 41.0506 7.17347C41.0015 7.17579 41.0644 7.5497 40.9936 7.55921C40.6612 7.60353 40.297 7.58969 39.9733 7.41468C39.8936 7.37042 39.9435 7.10862 39.9262 7.03089C39.82 6.56055 39.6694 7.24394 39.6446 7.25696C39.0518 7.58537 38.5982 6.96691 37.994 7.26136C37.9611 7.27865 37.708 8.01126 37.595 7.38294C37.5873 7.34114 37.4756 6.69831 37.3768 7.13782C37.3706 7.16532 37.4402 7.49626 37.3188 7.46253C37.1972 7.42887 37.0017 7.64987 36.8347 7.28626C36.7818 7.17172 36.6568 6.53047 36.4991 7.04163C36.4888 7.07732 36.2453 8.23312 36.1584 7.43568C36.1443 7.30441 36.159 6.46053 35.9708 6.8932C35.9348 6.97708 36.0001 7.16531 35.9054 7.28284C35.7602 7.46399 35.5678 7.23797 35.3893 7.6139C35.3582 7.68045 35.2257 8.25322 35.1194 7.81849C35.1028 7.7504 35.1344 7.46867 35.0783 7.43714C34.8114 7.2859 34.5319 7.47435 34.2609 7.27943C34.1649 7.21093 34.214 6.75548 34.114 6.63343C34.0139 6.51142 33.8123 6.39405 33.7076 6.60218C33.6029 6.8104 33.7173 7.53628 33.5604 7.59437C32.8783 7.84664 32.2026 7.42082 31.5216 7.35853C31.4205 7.34922 31.5043 7.60897 31.3554 7.6139C30.8066 7.63322 29.8591 7.87676 29.3828 7.32484C29.0013 6.88278 29.4814 6.54623 29.1899 6.36634C29.0492 6.28053 28.8969 7.12444 28.863 7.15101C28.5312 7.42089 28.3006 7.04705 28.0019 7.16175C27.9402 7.18555 28.0007 7.5276 27.9482 7.54407C27.7689 7.60339 27.5805 7.45072 27.4092 7.47864C27.3323 7.49196 27.3465 7.7532 27.2758 7.73304C27.1066 7.6878 26.9569 7.57799 26.792 7.33314C26.7769 7.31082 26.8783 6.98585 26.7531 6.97376C26.5505 6.95512 26.299 6.71358 26.0658 6.96302C25.9967 7.03806 25.994 7.63512 25.8453 7.22279C25.8141 7.13667 25.8539 6.41972 25.6807 7.03919C25.6515 7.14213 25.3606 7.97768 25.2178 7.43909C25.1801 7.29734 25.084 6.71067 25.0008 6.80286C24.9895 6.81758 25.0347 7.13828 24.9658 7.16956C24.7229 7.27423 24.4683 7.24001 24.2187 7.34046C24.1521 7.36792 24.2513 7.69978 24.152 7.73011C23.8789 7.81399 23.5379 7.72949 23.2708 7.62562C23.1723 7.58669 23.2404 7.31178 23.2332 7.28187C23.118 6.79527 23.0498 7.45207 23.0116 7.49036C22.7738 7.71968 22.5926 7.41116 22.3734 7.4928C22.3129 7.5145 22.3558 7.82767 22.3438 7.8556C22.2189 8.12844 22.3119 7.56603 22.2328 7.50403C22.0113 7.3285 21.7644 7.35367 21.5404 7.39368C21.4582 7.40884 21.5506 7.77197 21.4768 7.78138C21.0398 7.84395 20.5855 7.8092 20.159 7.60901C20.0787 7.57066 20.1292 7.29104 20.1125 7.22718C19.9971 6.78036 19.8281 7.38983 19.7892 7.44788C19.6123 7.71297 19.5436 7.46569 19.3874 7.51185C18.6243 7.74164 17.6822 7.57787 16.9619 7.47669C16.0233 7.34648 15.295 7.08047 14.3999 7.14954C14.343 7.15358 14.4004 7.52556 14.3513 7.53382C13.7182 7.62349 13.0949 7.47814 12.4605 7.58558C12.4085 7.59373 12.4835 7.94637 12.4 7.97132C12.2286 8.02496 12.0115 8.00579 11.8382 7.89319C11.7537 7.83894 11.867 7.53635 11.7819 7.48792C11.5839 7.37447 11.3715 7.34936 11.168 7.40589C11.0814 7.43072 11.2121 7.79138 11.0995 7.79554C10.3329 7.83132 9.57991 7.89343 8.80515 7.4264C8.75204 7.39432 8.70543 6.66132 8.5925 6.80189C8.584 7.00532 8.58446 7.24461 8.58074 7.46204C7.46466 7.57917 6.35997 7.32506 5.24076 7.28577C5.19357 7.2842 5.27512 7.67258 5.18376 7.67151C4.655 7.66577 4.14153 7.77337 3.60067 7.38734C3.547 7.34958 3.57454 6.66633 3.41639 6.76966C3.3885 6.78852 3.15031 6.87964 3.08873 7.02796C3.08037 7.05033 3.12382 7.36925 3.04707 7.37855C2.60104 7.42698 2.13363 7.35417 1.68838 7.15931C1.61652 7.12725 1.69304 6.78763 1.64186 6.76185C1.2788 6.58156 0.883891 6.83974 0.536967 6.53138C0.304748 6.32376 0.390722 5.73669 0.267324 5.15883C0.249871 5.0773 0.106074 5.06438 0.0986382 4.72816C0.0795473 3.88272 0.149198 2.95697 0.120619 2.05581C0.11458 1.86171 -0.0780005 2.07077 0.0360198 1.60171C0.0439853 1.57032 0.183607 1.41464 0.217996 1.25552C0.241939 1.14551 0.198794 0.803576 0.247644 0.662747C0.296491 0.522051 0.350167 0.808676 0.431155 0.643216C0.512106 0.475709 0.476511 0.0867252 0.638179 0.0406795ZM44.9216 5.44447C44.7938 5.11782 44.775 6.3142 44.9132 6.02796C44.9199 6.01271 44.9282 5.4605 44.9216 5.44447ZM60.3874 5.25551C60.2203 4.72782 60.1059 5.50373 60.2238 5.91127C60.3417 6.31836 60.4383 5.41547 60.3874 5.25551ZM62.1202 4.87025C61.9249 4.4542 61.8942 6.15071 62.1034 5.80775C62.1155 5.78837 62.1316 4.89441 62.1202 4.87025ZM0.83958 4.99428C0.837815 4.97839 0.734449 4.96291 0.731978 4.97865C0.676938 5.35862 0.883629 5.38932 0.83958 4.99428ZM63.8398 4.45082C63.7788 4.22133 63.6033 4.48625 63.679 4.77162C63.74 5.00119 63.9157 4.73629 63.8398 4.45082ZM38.2537 4.16762C38.2517 4.14979 38.1776 4.13374 38.1791 4.23451C38.1841 4.55909 38.2872 4.46749 38.2537 4.16762ZM66.7624 4.43129C66.3306 4.36743 66.0688 2.96603 66.539 3.12417C66.6242 3.15278 66.3555 3.57106 66.4639 3.69741C66.6622 3.92758 66.7939 3.04768 66.9963 3.51918C67.0329 3.60549 66.7871 4.43805 66.7617 4.43324C66.7619 4.43259 66.7622 4.43194 66.7624 4.43129ZM44.848 4.00746C44.8455 3.99164 44.7429 3.97664 44.7404 3.99233C44.6849 4.37214 44.8915 4.40258 44.848 4.00746ZM33.9294 3.42788C33.9238 3.39416 33.6857 3.36264 33.6779 3.3937C33.5537 4.0148 34.0351 4.08038 33.9294 3.42788ZM51.757 3.13198C51.8689 2.74988 52.0029 2.70489 52.0921 3.18471C51.9809 3.15924 51.8689 3.15549 51.757 3.13198Z" fill="black"/>
</svg>
